<?xml version="1.0" encoding="utf-8"?>
<!-- Generator: Adobe Illustrator 26.1.0, SVG Export Plug-In . SVG Version: 6.00 Build 0)  -->
<svg version="1.1" id="Layer_1" xmlns="http://www.w3.org/2000/svg" xmlns:xlink="http://www.w3.org/1999/xlink" x="0px" y="0px"
	 viewBox="0 0 90 90" style="enable-background:new 0 0 90 90;" xml:space="preserve">
<style type="text/css">
	.st0{fill:#FFFFFF;}
	.st1{fill:#333333;}
</style>
<g>
	<path class="st0" d="M55.8,10.1h5.1v19.2c0,0.6,0.1,1,0.3,1.3c0.2,0.3,0.6,0.4,1,0.4c0.4,0,0.9-0.2,1.4-0.5
		c0.6-0.4,1.1-0.8,1.6-1.3v-19h5.1v25h-5.1v-2.8c-0.9,1-1.9,1.8-2.9,2.3c-1,0.5-2,0.8-3,0.8c-1.2,0-2.1-0.4-2.7-1.1
		c-0.6-0.7-0.9-1.9-0.9-3.3V10.1z"/>
	<path class="st0" d="M36.8,15.8c0-1.9,0.7-3.5,2.1-4.6c1.4-1.1,3.2-1.7,5.6-1.7c2.1,0,3.8,0.6,5.2,1.8c1.3,1.2,2,2.8,2,4.7v12.9
		c0,2.1-0.7,3.8-2,5c-1.3,1.2-3.2,1.8-5.5,1.8c-2.2,0-4-0.6-5.4-1.9c-1.3-1.3-2-2.9-2-5.1V15.8z"/>
	<polygon class="st0" points="22.9,1.2 26.6,14.7 27,14.7 30.5,1.2 36.4,1.2 29.7,21 29.7,35.1 23.9,35.1 23.9,21.7 17.1,1.2 	"/>
	<path class="st0" d="M89.8,72.5c0,9-7.3,16.4-16.4,16.4H16.5c-9.1,0-16.4-7.3-16.4-16.4V59.4c0-9,7.3-16.4,16.4-16.4h56.9
		c9,0,16.4,7.3,16.4,16.4V72.5z"/>
	<path class="st1" d="M44.1,31.4c0.7,0,1.2-0.2,1.7-0.6c0.4-0.4,0.6-0.9,0.6-1.6V15.6c0-0.5-0.2-1-0.6-1.3c-0.4-0.3-1-0.5-1.6-0.5
		c-0.6,0-1.1,0.2-1.5,0.5c-0.4,0.3-0.6,0.8-0.6,1.3v13.6c0,0.7,0.2,1.2,0.6,1.6C43,31.2,43.5,31.4,44.1,31.4z"/>
	<path class="st1" d="M55.4,56.6c-0.7,0-1.4,0.2-2.1,0.5c-0.7,0.4-1.3,0.9-1.9,1.6v-9.9h-4.6v30.8h4.6v-1.7c0.6,0.7,1.2,1.2,1.9,1.5
		c0.7,0.3,1.5,0.5,2.4,0.5c1.3,0,2.4-0.4,3.1-1.3c0.7-0.9,1.1-2.1,1.1-3.7V62.3c0-1.9-0.4-3.3-1.1-4.3C58,57,56.9,56.6,55.4,56.6z
		 M55.2,74.2c0,0.7-0.1,1.2-0.4,1.6c-0.3,0.3-0.7,0.5-1.2,0.5c-0.4,0-0.7-0.1-1.1-0.3c-0.4-0.2-0.7-0.4-1.1-0.8V61.1
		c0.3-0.3,0.6-0.5,0.9-0.7c0.3-0.1,0.6-0.2,1-0.2c0.6,0,1.1,0.2,1.4,0.6c0.3,0.4,0.5,1,0.5,1.8L55.2,74.2L55.2,74.2z"/>
	<polygon class="st1" points="12.7,53.2 18,53.2 18,79.5 23.1,79.5 23.1,53.2 28.4,53.2 28.4,48.8 12.7,48.8 	"/>
	<path class="st1" d="M38.8,74.1c-0.4,0.5-0.9,0.9-1.4,1.2c-0.5,0.3-0.9,0.5-1.3,0.5c-0.4,0-0.7-0.1-0.9-0.4
		c-0.2-0.2-0.3-0.6-0.3-1.2V56.8h-4.5v19c0,1.4,0.3,2.4,0.8,3c0.5,0.7,1.3,1,2.4,1c0.8,0,1.7-0.2,2.6-0.7c0.9-0.5,1.8-1.2,2.6-2.1
		v2.5h4.5V56.8h-4.5C38.8,56.8,38.8,74.1,38.8,74.1z"/>
	<path class="st1" d="M69.1,56.3c-2,0-3.7,0.6-5,1.8c-1.3,1.2-1.9,2.9-1.9,4.8v10.2c0,2.2,0.6,3.9,1.8,5.2c1.2,1.3,2.8,1.9,4.8,1.9
		c2.3,0,4-0.6,5.1-1.8c1.1-1.2,1.7-2.9,1.7-5.3V72h-4.7v1c0,1.3-0.2,2.2-0.5,2.6c-0.3,0.4-0.8,0.6-1.6,0.6c-0.7,0-1.2-0.2-1.5-0.7
		c-0.3-0.5-0.4-1.3-0.4-2.5v-4.3h8.7v-5.8c0-2.2-0.6-3.8-1.7-4.9C72.8,56.8,71.2,56.3,69.1,56.3z M70.9,65.2h-4v-2.3
		c0-1,0.2-1.6,0.5-2c0.3-0.4,0.8-0.6,1.6-0.6c0.7,0,1.2,0.2,1.5,0.6c0.3,0.4,0.5,1.1,0.5,2L70.9,65.2L70.9,65.2z"/>
</g>
</svg>
