<?xml version="1.0" encoding="utf-8"?>
<!-- Generator: Adobe Illustrator 26.1.0, SVG Export Plug-In . SVG Version: 6.00 Build 0)  -->
<svg version="1.1" id="Layer_1" xmlns="http://www.w3.org/2000/svg" xmlns:xlink="http://www.w3.org/1999/xlink" x="0px" y="0px"
	 viewBox="0 0 90 90" style="enable-background:new 0 0 90 90;" xml:space="preserve">
<style type="text/css">
	.st0{fill:#FFFFFF;}
</style>
<g>
	<path class="st0" d="M12.1,89.9c-6.6,0-11.9-5.3-11.9-11.9C0.2,71.3,5.6,66,12.1,66c6.6,0,11.9,5.3,11.9,11.9
		C24.1,84.5,18.7,89.9,12.1,89.9z"/>
	<path class="st0" d="M42.1,89.9c0-11.3-4.4-21.8-12.3-29.8c-7.9-7.9-18.4-12.3-29.6-12.3V30.6c32.6,0,59.1,26.6,59.1,59.3
		C59.3,89.9,42.1,89.9,42.1,89.9z"/>
	<path class="st0" d="M72.5,90c0-40-32.4-72.6-72.2-72.6V0.1c49.3,0,89.5,40.3,89.5,89.9L72.5,90L72.5,90z"/>
</g>
</svg>
