<?xml version="1.0" encoding="utf-8"?>
<!-- Generator: Adobe Illustrator 26.1.0, SVG Export Plug-In . SVG Version: 6.00 Build 0)  -->
<svg version="1.1" id="Layer_1" xmlns="http://www.w3.org/2000/svg" xmlns:xlink="http://www.w3.org/1999/xlink" x="0px" y="0px"
	 viewBox="0 0 90 90" style="enable-background:new 0 0 90 90;" xml:space="preserve">
<style type="text/css">
	.st0{fill:#FFFFFF;}
</style>
<g>
	<g>
		<path class="st0" d="M45,8.1c12,0,13.4,0,18.1,0.3c4.4,0.2,6.8,0.9,8.3,1.5c2.1,0.8,3.6,1.8,5.2,3.4c1.6,1.6,2.5,3.1,3.4,5.2
			c0.6,1.6,1.3,4,1.5,8.3c0.2,4.7,0.3,6.2,0.3,18.1s0,13.4-0.3,18.1c-0.2,4.4-0.9,6.8-1.5,8.3c-0.8,2.1-1.8,3.6-3.4,5.2
			c-1.6,1.6-3.1,2.5-5.2,3.4c-1.6,0.6-4,1.3-8.3,1.5c-4.7,0.2-6.2,0.3-18.1,0.3s-13.4,0-18.1-0.3c-4.4-0.2-6.8-0.9-8.3-1.5
			c-2.1-0.8-3.6-1.8-5.2-3.4c-1.6-1.6-2.5-3.1-3.4-5.2c-0.6-1.6-1.3-4-1.5-8.3C8.3,58.4,8.2,56.9,8.2,45s0-13.4,0.3-18.1
			c0.2-4.4,0.9-6.8,1.5-8.3c0.8-2.1,1.8-3.6,3.4-5.2c1.6-1.6,3.1-2.5,5.2-3.4c1.6-0.6,4-1.3,8.3-1.5C31.6,8.2,33.1,8.1,45,8.1 M45,0
			C32.8,0,31.3,0.1,26.5,0.3c-4.8,0.2-8,1-10.9,2.1c-3,1.1-5.5,2.7-8,5.2c-2.5,2.5-4,5-5.2,8c-1.1,2.9-1.9,6.1-2.1,10.9
			C0.2,31.2,0.1,32.8,0.1,45s0.1,13.7,0.3,18.5c0.2,4.8,1,8,2.1,10.9c1.1,3,2.7,5.5,5.2,8c2.5,2.5,5,4,8,5.2
			c2.9,1.1,6.1,1.9,10.9,2.1c4.8,0.2,6.3,0.3,18.5,0.3s13.7-0.1,18.5-0.3c4.8-0.2,8-1,10.9-2.1c3-1.1,5.5-2.7,8-5.2
			c2.5-2.5,4-5,5.2-8c1.1-2.9,1.9-6.1,2.1-10.9C89.9,58.7,90,57.2,90,45s-0.1-13.7-0.3-18.5c-0.2-4.8-1-8-2.1-10.9
			c-1.1-3-2.7-5.5-5.2-8s-5-4-8-5.2c-2.9-1.1-6.1-1.9-10.9-2.1C58.8,0.1,57.2,0,45,0L45,0z"/>
		<path class="st0" d="M45,21.9C32.3,21.9,22,32.2,22,45C22,57.7,32.3,68,45,68S68.1,57.7,68.1,45C68.1,32.2,57.8,21.9,45,21.9z
			 M45,59.9c-8.3,0-15-6.7-15-15s6.7-15,15-15s15,6.7,15,15S53.3,59.9,45,59.9z"/>
		<circle class="st0" cx="69" cy="21" r="5.4"/>
	</g>
</g>
</svg>
