<?xml version="1.0" encoding="utf-8"?>
<!-- Generator: Adobe Illustrator 26.1.0, SVG Export Plug-In . SVG Version: 6.00 Build 0)  -->
<svg version="1.1" id="Layer_1" xmlns="http://www.w3.org/2000/svg" xmlns:xlink="http://www.w3.org/1999/xlink" x="0px" y="0px"
	 viewBox="0 0 90 90" style="enable-background:new 0 0 90 90;" xml:space="preserve">
<style type="text/css">
	.st0{fill:#FFFFFF;}
</style>
<g>
	<path class="st0" d="M80.5,26.9c0,0.8,0.1,1.6,0.1,2.4c0,24.3-18.5,52.4-52.4,52.4c-10.4,0-20.1-3-28.2-8.3
		c1.4,0.2,2.9,0.3,4.4,0.3c8.6,0,16.6-2.9,22.9-7.9C19.1,65.6,12.3,60.3,9.9,53c1.1,0.2,2.3,0.3,3.5,0.3c1.7,0,3.3-0.2,4.8-0.6
		C9.8,51,3.4,43.5,3.4,34.6c0-0.1,0-0.2,0-0.2c2.5,1.4,5.3,2.2,8.4,2.3c-5-3.3-8.2-8.9-8.2-15.3c0-3.4,0.9-6.5,2.5-9.3
		c9.1,11.2,22.7,18.5,38,19.3c-0.3-1.3-0.5-2.8-0.5-4.2C43.6,17,51.8,8.7,62,8.7c5.3,0,10.1,2.2,13.5,5.8c4.2-0.8,8.1-2.4,11.7-4.5
		c-1.4,4.3-4.3,7.9-8.1,10.2c3.7-0.4,7.3-1.4,10.6-2.9C87.2,21,84.1,24.3,80.5,26.9z"/>
</g>
</svg>
